<svg width="150" height="150" xmlns="http://www.w3.org/2000/svg">
 <defs>
  <linearGradient x1="62.1023273%" y1="0%" x2="108.19718%" y2="37.8635764%" id="linearGradient-1">
   <stop stop-color="#4285eb" offset="0%"/>
   <stop stop-color="#2ec7ff" offset="100%"/>
  </linearGradient>
  <linearGradient x1="69.644116%" y1="0%" x2="54.0428975%" y2="108.456714%" id="linearGradient-2">
   <stop stop-color="#29cdff" offset="0%"/>
   <stop stop-color="#148eff" offset="37.8600687%"/>
   <stop stop-color="#0a60ff" offset="100%"/>
  </linearGradient>
  <linearGradient x1="69.6908165%" y1="-12.9743587%" x2="16.7228981%" y2="117.391248%" id="linearGradient-3">
   <stop stop-color="#fa816e" offset="0%"/>
   <stop stop-color="#f74a5c" offset="41.472606%"/>
   <stop stop-color="#f51d2c" offset="100%"/>
  </linearGradient>
  <linearGradient id="svg_7" y2="114.942679%" x2="30.4400914%" y1="-35.6905737%" x1="68.1279872%">
   <stop offset="0%" stop-color="#fa8e7d"/>
   <stop offset="51.2635191%" stop-color="#f74a5c"/>
   <stop offset="100%" stop-color="#f51d2c"/>
  </linearGradient>
 </defs>
 <g>
  <title>background</title>
  <rect x="-1" y="-1" width="152" height="152" id="canvas_background" fill="none"/>
 </g>
 <g>
  <title>Layer 1</title>
  <g id="logo">
   <g id="Group-28-Copy-5">
    <g id="Group-27-Copy-3">
     <g id="Group-25" fill-rule="nonzero" transform="rotate(-45 75.09999847412107,74.99369812011717) ">
      <g id="2">
       <path d="m66.6,-20.8l-87.4,87.3c-4.7,4.7 -4.7,12.3 0,17l87.4,87.3c4.7,4.7 12.3,4.7 17,0l36.6,-36.6c4.2,-4.2 4.2,-11 0,-15.2c-4.2,-4.2 -11,-4.2 -15.2,0l-27.8,27.7c-1.2,1.2 -2.9,1.2 -4.1,0l-69.8,-69.7c-1.2,-1.2 -1.2,-2.9 0,-4.1l69.8,-69.8c1.2,-1.1 2.9,-1.1 4.1,0l27.8,27.8c4.2,4.2 11,4.2 15.2,0c4.2,-4.2 4.2,-11 0,-15.2l-36.6,-36.6c-4.7,-4.6 -12.3,-4.6 -17,0.1z" id="Shape" fill="url(#linearGradient-1)"/>
       <path d="m66.6,-20.8l-87.4,87.3c-4.7,4.7 -4.7,12.3 0,17l87.4,87.3c4.7,4.7 12.3,4.7 17,0l36.6,-36.6c4.2,-4.2 4.2,-11 0,-15.2c-4.2,-4.2 -11,-4.2 -15.2,0l-27.8,27.7c-1.2,1.2 -2.9,1.2 -4.1,0l-69.8,-69.7c-1.2,-1.2 -1.2,-2.9 0,-4.1l69.8,-69.8c2.9,-2.5 7.7,-7.6 14.6,-8.7c5.2,-0.9 10.9,1 17,5.8c-4.1,-4.1 -11.1,-11.2 -21.1,-21.1c-4.7,-4.6 -12.3,-4.6 -17,0.1z" id="Shape" fill="url(#linearGradient-2)"/>
      </g>
      <path d="m128.7,110.9c4.2,4.2 11,4.2 15.2,0l27.1,-27.1c4.7,-4.7 4.7,-12.2 0,-16.9l-27.3,-27.2c-4.2,-4.2 -11.1,-4.2 -15.3,0c-4.2,4.2 -4.2,11.1 0,15.3l18.5,18.4c1.1,1.1 1.1,2.9 0,4.1l-18.2,18.1c-4.2,4.2 -4.2,11 0,15.3z" id="Shape" fill="url(#linearGradient-3)"/>
     </g>

     <g id="svg_12" stroke="null">
      <g id="svg_10" transform="matrix(0.8258963114077542,0,0,0.8258963114077542,-56.51399713907371,-91.58370441367168) " stroke="null">
       <title transform="translate(-1.4210854715202004e-14,1.2108057737350464) translate(-1.4210854715202004e-14,-1.2108057737350464) translate(-1.4210854715202004e-14,-1.2108057737350464) translate(-1.4210854715202004e-14,-1.2108057737350464) translate(-1.2108057737350464,-1.4210854715202004e-14) translate(-1.2108057737350464,-1.4210854715202004e-14) translate(-27.84853172302246,-27.84853172302246) ">background</title>
       <rect x="114.281386" y="152.87249" width="99" height="90" id="svg_8" fill="none" stroke="null"/>
      </g>
      <g id="svg_11" transform="matrix(0.8258963114077542,0,0,0.8258963114077542,-56.51399713907371,-91.58370441367168) " stroke="null">
       <title transform="translate(-1.4210854715202004e-14,1.2108057737350464) translate(-1.4210854715202004e-14,-1.2108057737350464) translate(-1.4210854715202004e-14,-1.2108057737350464) translate(-1.4210854715202004e-14,-1.2108057737350464) translate(-1.2108057737350464,-1.4210854715202004e-14) translate(-1.2108057737350464,-1.4210854715202004e-14) translate(-27.84853172302246,-27.84853172302246) ">Layer 1</title>
       <path d="m211.168257,182.078597a55.758,55.758 0 0 1 -54.67601,46.972a40.5,40.5 0 0 1 -7.99199,-0.485a24.492,24.492 0 0 1 -20.369,-23.088a23.784,23.784 0 0 1 47.561,-0.336c0.1,3.942 -1.608,7.4 -5.11801,7.5c-3.75,0 -5.508,-2.676 -5.508,-6.28201l0,-10.01999a6.137,6.137 0 0 0 -6.09,-6.143l-8.4,0a14.621,14.621 0 1 0 10.8,24.36499l0.294,-0.438l0.294,0.486a10.343,10.343 0 0 0 8.82,4.2a11.658,11.658 0 0 0 10.8,-12.186a31.71,31.71 0 0 0 -0.87,-7.745a29.675,29.675 0 0 0 -58.672,6.426a30.047,30.047 0 0 0 29.285,29.675s2.2,0.2 4.68,0.143a63.335,63.335 0 0 0 33.96501,-10.133c0.144,-0.09999 0.28799,0.1 0.19199,0.246a49.854,49.854 0 0 1 -38.836,15.881a35.045,35.045 0 0 1 -35.669,-35.957a36.267,36.267 0 0 1 14.568,-29.045a35.523,35.523 0 0 1 20.957,-6.918l11.274,0a31.72,31.72 0 0 0 23.4,-10.331a0.438,0.438 0 0 1 0.238,-0.136a0.447,0.447 0 0 1 0.479,0.209a0.453,0.453 0 0 1 0.062,0.269a31.8,31.8 0 0 1 -4.919,14.225a0.431,0.431 0 0 0 -0.05299,0.244a0.44,0.44 0 0 0 0.29,0.379a0.437,0.437 0 0 0 0.248,0.013a34.088,34.088 0 0 0 23.7,-19.542a0.623,0.623 0 0 1 0.219,-0.211a0.6,0.6 0 0 1 0.589,0a0.615,0.615 0 0 1 0.219,0.211a43.2,43.2 0 0 1 4.238,27.552l0,0.00001zm-59.87,14.136a8.769,8.769 0 1 0 8.768,8.768l0,-8.186a0.632,0.632 0 0 0 -0.6,-0.6l-8.168,0.018z" fill="url(#svg_7)" id="svg_6" stroke="null"/>
      </g>
     </g>
    </g>
   </g>
  </g>
 </g>
</svg>