<?xml version="1.0" standalone="no"?><!DOCTYPE svg PUBLIC "-//W3C//DTD SVG 1.1//EN" "http://www.w3.org/Graphics/SVG/1.1/DTD/svg11.dtd"><svg t="1569683657482" class="icon" viewBox="0 0 1024 1024" version="1.1" xmlns="http://www.w3.org/2000/svg" p-id="13305" xmlns:xlink="http://www.w3.org/1999/xlink" width="200" height="200"><defs><style type="text/css"></style></defs><path d="M952 474H829.8C812.5 327.6 696.4 211.5 550 194.2V72c0-4.4-3.6-8-8-8h-60c-4.4 0-8 3.6-8 8v122.2C327.6 211.5 211.5 327.6 194.2 474H72c-4.4 0-8 3.6-8 8v60c0 4.4 3.6 8 8 8h122.2C211.5 696.4 327.6 812.5 474 829.8V952c0 4.4 3.6 8 8 8h60c4.4 0 8-3.6 8-8V829.8C696.4 812.5 812.5 696.4 829.8 550H952c4.4 0 8-3.6 8-8v-60c0-4.4-3.6-8-8-8zM512 756c-134.8 0-244-109.2-244-244s109.2-244 244-244 244 109.2 244 244-109.2 244-244 244z" p-id="13306"></path><path d="M512 392c-32.1 0-62.1 12.4-84.8 35.2-22.7 22.7-35.2 52.7-35.2 84.8s12.5 62.1 35.2 84.8C449.9 619.4 480 632 512 632s62.1-12.5 84.8-35.2C619.4 574.1 632 544 632 512s-12.5-62.1-35.2-84.8C574.1 404.4 544.1 392 512 392z" p-id="13307"></path></svg>