<?xml version="1.0" standalone="no"?><!DOCTYPE svg PUBLIC "-//W3C//DTD SVG 1.1//EN" "http://www.w3.org/Graphics/SVG/1.1/DTD/svg11.dtd"><svg t="1569683667781" class="icon" viewBox="0 0 1024 1024" version="1.1" xmlns="http://www.w3.org/2000/svg" p-id="13424" xmlns:xlink="http://www.w3.org/1999/xlink" width="200" height="200"><defs><style type="text/css"></style></defs><path d="M326 664H104c-8.8 0-16 7.2-16 16v48c0 8.8 7.2 16 16 16h174v176c0 8.8 7.2 16 16 16h48c8.8 0 16-7.2 16-16V696c0-17.7-14.3-32-32-32zM342 88h-48c-8.8 0-16 7.2-16 16v176H104c-8.8 0-16 7.2-16 16v48c0 8.8 7.2 16 16 16h222c17.7 0 32-14.3 32-32V104c0-8.8-7.2-16-16-16zM920 664H698c-17.7 0-32 14.3-32 32v224c0 8.8 7.2 16 16 16h48c8.8 0 16-7.2 16-16V744h174c8.8 0 16-7.2 16-16v-48c0-8.8-7.2-16-16-16zM920 280H746V104c0-8.8-7.2-16-16-16h-48c-8.8 0-16 7.2-16 16v224c0 17.7 14.3 32 32 32h222c8.8 0 16-7.2 16-16v-48c0-8.8-7.2-16-16-16z" p-id="13425"></path></svg>