<?xml version="1.0" standalone="no"?><!DOCTYPE svg PUBLIC "-//W3C//DTD SVG 1.1//EN" "http://www.w3.org/Graphics/SVG/1.1/DTD/svg11.dtd"><svg t="1569683650778" class="icon" viewBox="0 0 1024 1024" version="1.1" xmlns="http://www.w3.org/2000/svg" p-id="13065" xmlns:xlink="http://www.w3.org/1999/xlink" width="200" height="200"><defs><style type="text/css"></style></defs><path d="M301.3 496.7c-23.8 0-40.2-10.5-41.6-26.9H205c0.9 43.4 36.9 70.3 93.9 70.3 59.1 0 95-28.4 95-75.5 0-35.8-20-55.9-64.5-64.5l-29.1-5.6c-23.8-4.7-33.8-11.9-33.8-24.2 0-15 13.3-24.5 33.4-24.5 20.1 0 35.3 11.1 36.6 27h53c-0.9-41.7-37.5-70.3-90.3-70.3-54.4 0-89.7 28.9-89.7 73 0 35.5 21.2 58 62.5 65.8l29.7 5.9c25.8 5.2 35.6 11.9 35.6 24.4 0.1 14.7-14.5 25.1-36 25.1z" p-id="13066"></path><path d="M928 140H96c-17.7 0-32 14.3-32 32v496c0 17.7 14.3 32 32 32h380v112H304c-8.8 0-16 7.2-16 16v48c0 4.4 3.6 8 8 8h432c4.4 0 8-3.6 8-8v-48c0-8.8-7.2-16-16-16H548V700h380c17.7 0 32-14.3 32-32V172c0-17.7-14.3-32-32-32z m-40 488H136V212h752v416z" p-id="13067"></path><path d="M828.5 486.7h-95.8V308.5h-57.4V534h153.2zM529.9 540.1c14.1 0 27.2-2 39.1-5.8l13.3 20.3h53.3L607.9 511c21.1-20 33-51.1 33-89.8 0-73.3-43.3-118.8-110.9-118.8s-111.2 45.3-111.2 118.8c-0.1 73.7 43 118.9 111.1 118.9z m0-190c31.6 0 52.7 27.7 52.7 71.1 0 16.7-3.6 30.6-10 40.5l-5.2-6.9h-48.8L542 491c-3.9 0.9-8 1.4-12.2 1.4-31.7 0-52.8-27.5-52.8-71.2 0.1-43.6 21.2-71.1 52.9-71.1z" p-id="13068"></path></svg>