<?xml version="1.0" standalone="no"?><!DOCTYPE svg PUBLIC "-//W3C//DTD SVG 1.1//EN" "http://www.w3.org/Graphics/SVG/1.1/DTD/svg11.dtd"><svg t="1569683582196" class="icon" viewBox="0 0 1024 1024" version="1.1" xmlns="http://www.w3.org/2000/svg" p-id="11764" xmlns:xlink="http://www.w3.org/1999/xlink" width="200" height="200"><defs><style type="text/css"></style></defs><path d="M819.8 512l102.4-122.9c2.8-3.4 2.4-8.4-1-11.3-1.4-1.2-3.2-1.9-5.1-1.9h-54.7c-2.4 0-4.6 1.1-6.1 2.9L782 466.7l-73.1-87.8c-1.5-1.8-3.8-2.9-6.1-2.9H648c-1.9 0-3.7 0.7-5.1 1.9-3.4 2.8-3.9 7.9-1 11.3L744.2 512 641.8 634.9c-2.8 3.4-2.4 8.4 1 11.3 1.4 1.2 3.2 1.9 5.1 1.9h54.7c2.4 0 4.6-1.1 6.1-2.9l73.1-87.8 73.1 87.8c1.5 1.8 3.8 2.9 6.1 2.9h55c1.9 0 3.7-0.7 5.1-1.9 3.4-2.8 3.9-7.9 1-11.3L819.8 512zM536 464H120c-4.4 0-8 3.6-8 8v80c0 4.4 3.6 8 8 8h416c4.4 0 8-3.6 8-8v-80c0-4.4-3.6-8-8-8zM452 668h-60c-3.3 0-6 2.7-6 6v166H136c-3.3 0-6 2.7-6 6v60c0 3.3 2.7 6 6 6h292c16.6 0 30-13.4 30-30V674c0-3.3-2.7-6-6-6zM136 184h250v166c0 3.3 2.7 6 6 6h60c3.3 0 6-2.7 6-6V142c0-16.6-13.4-30-30-30H136c-3.3 0-6 2.7-6 6v60c0 3.3 2.7 6 6 6z" p-id="11765"></path></svg>