<?xml version="1.0" standalone="no"?><!DOCTYPE svg PUBLIC "-//W3C//DTD SVG 1.1//EN" "http://www.w3.org/Graphics/SVG/1.1/DTD/svg11.dtd"><svg t="1569683642448" class="icon" viewBox="0 0 1024 1024" version="1.1" xmlns="http://www.w3.org/2000/svg" p-id="12829" xmlns:xlink="http://www.w3.org/1999/xlink" width="200" height="200"><defs><style type="text/css"></style></defs><path d="M632 698.3l141.9-112c4.1-3.2 4.1-9.4 0-12.6L632 461.7c-5.3-4.2-13-0.4-13 6.3v76H295c-4.4 0-8 3.6-8 8v56c0 4.4 3.6 8 8 8h324v76c0 6.7 7.8 10.4 13 6.3zM893.3 293.3L730.7 130.7c-7.5-7.5-16.7-13-26.7-16V112H144c-17.7 0-32 14.3-32 32v278c0 4.4 3.6 8 8 8h56c4.4 0 8-3.6 8-8V184h136v136c0 17.7 14.3 32 32 32h320c17.7 0 32-14.3 32-32V205.8l136 136V422c0 4.4 3.6 8 8 8h56c4.4 0 8-3.6 8-8v-83.5c0-17-6.7-33.2-18.7-45.2zM640 288H384V184h256v104zM904 724h-56c-4.4 0-8 3.6-8 8v108H184V732c0-4.4-3.6-8-8-8h-56c-4.4 0-8 3.6-8 8v148c0 17.7 14.3 32 32 32h736c17.7 0 32-14.3 32-32V732c0-4.4-3.6-8-8-8z" p-id="12830"></path></svg>