<?xml version="1.0" standalone="no"?>
<svg t="1569683683230" class="icon" viewBox="0 0 1024 1024" version="1.1" xmlns="http://www.w3.org/2000/svg" p-id="13542" xmlns:xlink="http://www.w3.org/1999/xlink">
  <defs>
    <style type="text/css"></style>
  </defs>
  <path d="M342 88H120c-17.7 0-32 14.3-32 32v224c0 8.8 7.2 16 16 16h48c8.8 0 16-7.2 16-16V168h174c8.8 0 16-7.2 16-16v-48c0-8.8-7.2-16-16-16zM920 664h-48c-8.8 0-16 7.2-16 16v176H682c-8.8 0-16 7.2-16 16v48c0 8.8 7.2 16 16 16h222c17.7 0 32-14.3 32-32V680c0-8.8-7.2-16-16-16zM342 856H168V680c0-8.8-7.2-16-16-16h-48c-8.8 0-16 7.2-16 16v224c0 17.7 14.3 32 32 32h222c8.8 0 16-7.2 16-16v-48c0-8.8-7.2-16-16-16zM904 88H682c-8.8 0-16 7.2-16 16v48c0 8.8 7.2 16 16 16h174v176c0 8.8 7.2 16 16 16h48c8.8 0 16-7.2 16-16V120c0-17.7-14.3-32-32-32z" p-id="13543"></path>
</svg>