<?xml version="1.0" standalone="no"?><!DOCTYPE svg PUBLIC "-//W3C//DTD SVG 1.1//EN" "http://www.w3.org/Graphics/SVG/1.1/DTD/svg11.dtd"><svg t="1569683698855" class="icon" viewBox="0 0 1024 1024" version="1.1" xmlns="http://www.w3.org/2000/svg" p-id="13660" xmlns:xlink="http://www.w3.org/1999/xlink" width="200" height="200"><defs><style type="text/css"></style></defs><path d="M309.1 554.3c-5.4 11.6-5.4 24.9 0 36.4C353.3 684 421.6 732 512.5 732s159.2-48.1 203.4-141.3c5.4-11.5 5.4-24.8 0.1-36.3l-0.1-0.1-0.1-0.1C671.7 461 603.4 413 512.5 413s-159.2 48.1-203.4 141.3zM512.5 477c62.1 0 107.4 30 141.1 95.5C620 638 574.6 668 512.5 668s-107.4-30-141.1-95.5c33.7-65.5 79-95.5 141.1-95.5z" p-id="13661"></path><path d="M513 573m-56 0a56 56 0 1 0 112 0 56 56 0 1 0-112 0Z" p-id="13662"></path><path d="M880 298.4H521L403.7 186.2c-1.5-1.4-3.5-2.2-5.5-2.2H144c-17.7 0-32 14.3-32 32v592c0 17.7 14.3 32 32 32h736c17.7 0 32-14.3 32-32V330.4c0-17.7-14.3-32-32-32zM840 768H184V256h188.5l119.6 114.4H840V768z" p-id="13663"></path></svg>