<?xml version="1.0" standalone="no"?><!DOCTYPE svg PUBLIC "-//W3C//DTD SVG 1.1//EN" "http://www.w3.org/Graphics/SVG/1.1/DTD/svg11.dtd"><svg t="1569683753031" class="icon" viewBox="0 0 1024 1024" version="1.1" xmlns="http://www.w3.org/2000/svg" p-id="14137" xmlns:xlink="http://www.w3.org/1999/xlink" width="200" height="200"><defs><style type="text/css"></style></defs><path d="M312.1 591.5c3.1 3.1 8.2 3.1 11.3 0l101.8-101.8 86.1 86.2c3.1 3.1 8.2 3.1 11.3 0l226.3-226.5c3.1-3.1 3.1-8.2 0-11.3l-36.8-36.8c-3.1-3.1-8.2-3.1-11.3 0L517 485.3l-86.1-86.2c-3.1-3.1-8.2-3.1-11.3 0L275.3 543.4c-3.1 3.1-3.1 8.2 0 11.3l36.8 36.8z" p-id="14138"></path><path d="M904 160H548V96c0-4.4-3.6-8-8-8h-56c-4.4 0-8 3.6-8 8v64H120c-17.7 0-32 14.3-32 32v520c0 17.7 14.3 32 32 32h356.4v32L311.6 884.1c-3.7 2.4-4.7 7.3-2.3 11l30.3 47.2v0.1c2.4 3.7 7.4 4.7 11.1 2.3L512 838.9l161.3 105.8c3.7 2.4 8.7 1.4 11.1-2.3v-0.1l30.3-47.2c2.4-3.7 1.3-8.6-2.3-11L548 776.3V744h356c17.7 0 32-14.3 32-32V192c0-17.7-14.3-32-32-32z m-40 512H160V232h704v440z" p-id="14139"></path></svg>