<?xml version="1.0" standalone="no"?><!DOCTYPE svg PUBLIC "-//W3C//DTD SVG 1.1//EN" "http://www.w3.org/Graphics/SVG/1.1/DTD/svg11.dtd"><svg t="1569683739097" class="icon" viewBox="0 0 1024 1024" version="1.1" xmlns="http://www.w3.org/2000/svg" p-id="13900" xmlns:xlink="http://www.w3.org/1999/xlink" width="200" height="200"><defs><style type="text/css"></style></defs><path d="M912 820.1V203.9c28-9.9 48-36.6 48-67.9 0-39.8-32.2-72-72-72-31.3 0-58 20-67.9 48H203.9C194 84 167.3 64 136 64c-39.8 0-72 32.2-72 72 0 31.3 20 58 48 67.9v616.2C84 830 64 856.7 64 888c0 39.8 32.2 72 72 72 31.3 0 58-20 67.9-48h616.2c9.9 28 36.6 48 67.9 48 39.8 0 72-32.2 72-72 0-31.3-20-58-48-67.9zM888 112c13.3 0 24 10.7 24 24s-10.7 24-24 24-24-10.7-24-24 10.7-24 24-24zM136 912c-13.3 0-24-10.7-24-24s10.7-24 24-24 24 10.7 24 24-10.7 24-24 24z m0-752c-13.3 0-24-10.7-24-24s10.7-24 24-24 24 10.7 24 24-10.7 24-24 24z m704 680H184V184h656v656z m48 72c-13.3 0-24-10.7-24-24s10.7-24 24-24 24 10.7 24 24-10.7 24-24 24z" p-id="13901"></path><path d="M288 474h448c8.8 0 16-7.2 16-16V282c0-8.8-7.2-16-16-16H288c-8.8 0-16 7.2-16 16v176c0 8.8 7.2 16 16 16z m56-136h336v64H344v-64zM288 758h448c8.8 0 16-7.2 16-16V566c0-8.8-7.2-16-16-16H288c-8.8 0-16 7.2-16 16v176c0 8.8 7.2 16 16 16z m56-136h336v64H344v-64z" p-id="13902"></path></svg>