<?xml version="1.0" standalone="no"?><!DOCTYPE svg PUBLIC "-//W3C//DTD SVG 1.1//EN" "http://www.w3.org/Graphics/SVG/1.1/DTD/svg11.dtd"><svg t="1569683503597" class="icon" viewBox="0 0 1024 1024" version="1.1" xmlns="http://www.w3.org/2000/svg" p-id="10701" xmlns:xlink="http://www.w3.org/1999/xlink" width="200" height="200"><defs><style type="text/css"></style></defs><path d="M904 768H120c-4.4 0-8 3.6-8 8v80c0 4.4 3.6 8 8 8h784c4.4 0 8-3.6 8-8v-80c0-4.4-3.6-8-8-8zM878.7 160H145.3c-18.4 0-33.3 14.3-33.3 32v464c0 17.7 14.9 32 33.3 32h733.3c18.4 0 33.3-14.3 33.3-32V192c0.1-17.7-14.8-32-33.2-32zM360 616H184V456h176v160z m0-224H184V232h176v160z m240 224H424V456h176v160z m0-224H424V232h176v160z m240 224H664V456h176v160z m0-224H664V232h176v160z" p-id="10702"></path></svg>