<?xml version="1.0" standalone="no"?><!DOCTYPE svg PUBLIC "-//W3C//DTD SVG 1.1//EN" "http://www.w3.org/Graphics/SVG/1.1/DTD/svg11.dtd"><svg t="1569683371420" class="icon" viewBox="0 0 1024 1024" version="1.1" xmlns="http://www.w3.org/2000/svg" p-id="9841" xmlns:xlink="http://www.w3.org/1999/xlink" width="200" height="200"><defs><style type="text/css"></style></defs><path d="M952 612c4.4 0 8-3.6 8-8v-56c0-4.4-3.6-8-8-8H298c-14.2-35.2-48.7-60-89-60-53 0-96 43-96 96s43 96 96 96c40.3 0 74.8-24.8 89-60h150.3v152c0 55.2 44.8 100 100 100H952c4.4 0 8-3.6 8-8v-56c0-4.4-3.6-8-8-8H548.3c-15.5 0-28-12.5-28-28V612H952zM451.7 313.7l172.5 136.2c6.3 5.1 15.8 0.5 15.8-7.7V344h264c4.4 0 8-3.6 8-8v-60c0-4.4-3.6-8-8-8H640v-98.2c0-8.1-9.4-12.8-15.8-7.7L451.7 298.3c-4.9 3.9-4.9 11.5 0 15.4z" p-id="9842"></path></svg>