<?xml version="1.0" standalone="no"?><!DOCTYPE svg PUBLIC "-//W3C//DTD SVG 1.1//EN" "http://www.w3.org/Graphics/SVG/1.1/DTD/svg11.dtd"><svg t="1569683632175" class="icon" viewBox="0 0 1024 1024" version="1.1" xmlns="http://www.w3.org/2000/svg" p-id="12593" xmlns:xlink="http://www.w3.org/1999/xlink" width="200" height="200"><defs><style type="text/css"></style></defs><path d="M640.6 429.8h257.1c7.9 0 14.3-6.4 14.3-14.3V158.3c0-7.9-6.4-14.3-14.3-14.3H640.6c-7.9 0-14.3 6.4-14.3 14.3v92.9H490.6c-3.9 0-7.1 3.2-7.1 7.1v221.5h-85.7v-96.5c0-7.9-6.4-14.3-14.3-14.3H126.3c-7.9 0-14.3 6.4-14.3 14.3v257.2c0 7.9 6.4 14.3 14.3 14.3h257.1c7.9 0 14.3-6.4 14.3-14.3V544h85.7v221.5c0 3.9 3.2 7.1 7.1 7.1h135.7v92.9c0 7.9 6.4 14.3 14.3 14.3h257.1c7.9 0 14.3-6.4 14.3-14.3v-257c0-7.9-6.4-14.3-14.3-14.3h-257c-7.9 0-14.3 6.4-14.3 14.3v100h-78.6v-393h78.6v100c0 7.9 6.4 14.3 14.3 14.3z m53.5-217.9h150V362h-150V211.9zM329.9 587h-150V437h150v150z m364.2 75.1h150v150.1h-150V662.1z" p-id="12594"></path></svg>