<?xml version="1.0" standalone="no"?><!DOCTYPE svg PUBLIC "-//W3C//DTD SVG 1.1//EN" "http://www.w3.org/Graphics/SVG/1.1/DTD/svg11.dtd"><svg t="1569683569194" class="icon" viewBox="0 0 1024 1024" version="1.1" xmlns="http://www.w3.org/2000/svg" p-id="11645" xmlns:xlink="http://www.w3.org/1999/xlink" width="200" height="200"><defs><style type="text/css"></style></defs><path d="M140 188h584v164h76V144c0-17.7-14.3-32-32-32H96c-17.7 0-32 14.3-32 32v736c0 17.7 14.3 32 32 32h544v-76H140V188z" p-id="11646"></path><path d="M414.3 256h-60.6c-3.4 0-6.4 2.2-7.6 5.4L219 629.4c-0.3 0.8-0.4 1.7-0.4 2.6 0 4.4 3.6 8 8 8h55.1c3.4 0 6.4-2.2 7.6-5.4L322 540h196.2L422 261.4c-1.3-3.2-4.3-5.4-7.7-5.4z m12.4 228h-85.5L384 360.2 426.7 484zM936 528H800v-93c0-4.4-3.6-8-8-8h-56c-4.4 0-8 3.6-8 8v93H592c-13.3 0-24 10.7-24 24v176c0 13.3 10.7 24 24 24h136v152c0 4.4 3.6 8 8 8h56c4.4 0 8-3.6 8-8V752h136c13.3 0 24-10.7 24-24V552c0-13.3-10.7-24-24-24zM728 680h-88v-80h88v80z m160 0h-88v-80h88v80z" p-id="11647"></path></svg>