<svg width="200" height="200" xmlns="http://www.w3.org/2000/svg">
  <path stroke="null" id="svg_14" fill="#8867c8" d="m197.807245,66.652259a115.465013,115.465013 0 0 1 -113.224381,97.270752a83.868378,83.868378 0 0 1 -16.550027,-1.00435a50.718625,50.718625 0 0 1 -42.180617,-47.811188a49.252481,49.252481 0 0 1 98.490467,-0.695797c0.207082,8.163189 -3.329885,15.324099 -10.598478,15.531181c-7.765591,0 -11.406099,-5.541525 -11.406099,-13.008917l0,-20.749658a12.708648,12.708648 0 0 0 -12.611319,-12.721073l-17.394923,0a30.27752,30.27752 0 1 0 22.364901,50.45563l0.608822,-0.907021l0.608822,1.006421a21.418534,21.418534 0 0 0 18.264669,8.697461a24.141668,24.141668 0 0 0 22.364901,-25.235063a65.665834,65.665834 0 0 0 -1.801617,-16.038533a61.451707,61.451707 0 0 0 -121.499394,13.307116a62.222053,62.222053 0 0 0 60.644085,61.451707s4.555813,0.414165 9.691457,0.296128a131.155647,131.155647 0 0 0 70.335542,-20.983661c0.298199,-0.207082 0.596397,0.207082 0.397598,0.509423a103.238867,103.238867 0 0 1 -80.422527,32.886758a72.572032,72.572032 0 0 1 -73.864226,-74.460624a75.102579,75.102579 0 0 1 30.167766,-60.147087a73.561886,73.561886 0 0 1 43.398262,-14.325961l23.346471,0a65.686542,65.686542 0 0 0 48.457285,-21.393684a0.907021,0.907021 0 0 1 0.492856,-0.281632a0.925658,0.925658 0 0 1 0.991925,0.432802a0.938083,0.938083 0 0 1 0.128391,0.557052a65.852208,65.852208 0 0 1 -10.186384,29.457473a0.892525,0.892525 0 0 0 -0.109754,0.505281a0.911163,0.911163 0 0 0 0.600539,0.784842a0.90495,0.90495 0 0 0 0.513564,0.026921a70.590253,70.590253 0 0 0 49.078532,-40.468045a1.290123,1.290123 0 0 1 0.45351,-0.436944a1.242494,1.242494 0 0 1 1.219715,0a1.273557,1.273557 0 0 1 0.45351,0.436944a89.459603,89.459603 0 0 1 8.776153,57.055347zm-123.980242,29.27317a18.159057,18.159057 0 1 0 18.156986,18.156986l0,-16.951766a1.308761,1.308761 0 0 0 -1.242494,-1.242494l-16.914492,0.037275z"/>
</svg>